{
  "accessors": [
    {
      "bufferView": 2,
      "componentType": 5126,
      "count": 168,
      "max": [
        0.035535335540771484,
        0.03698599338531494,
        0.0
      ],
      "min": [
        -5.494568347930908,
        -2.944688081741333,
        -2.480128765106201
      ],
      "type": "VEC3"
    },
    {
      "bufferView": 2,
      "byteOffset": 2016,
      "componentType": 5126,
      "count": 168,
      "max": [
        0.7586215138435364,
        0.7301136255264282,
        1.0
      ],
      "min": [
        -0.7586215138435364,
        -0.7301136255264282,
        -1.0
      ],
      "type": "VEC3"
    },
    {
      "bufferView": 3,
      "componentType": 5126,
      "count": 168,
      "max": [
        0.6325464248657227,
        1.0,
        0.6646645665168762,
        1.0
      ],
      "min": [
        -0.6325464248657227,
        -1.0,
        -0.7935857176780701,
        -1.0
      ],
      "type": "VEC4"
    },
    {
      "bufferView": 1,
      "componentType": 5126,
      "count": 168,
      "max": [
        0.8611389398574829,
        0.9998802542686462
      ],
      "min": [
        0.00011969188926741481,
        0.00011969188926741481
      ],
      "type": "VEC2"
    },
    {
      "bufferView": 0,
      "componentType": 5125,
      "count": 528,
      "type": "SCALAR"
    },
    {
      "bufferView": 2,
      "byteOffset": 4032,
      "componentType": 5126,
      "count": 102,
      "max": [
        3.3824269771575928,
        2.1301326751708984,
        0.19344927370548248
      ],
      "min": [
        -3.4031708240509033,
        -2.131298065185547,
        -0.19390586018562317
      ],
      "type": "VEC3"
    },
    {
      "bufferView": 2,
      "byteOffset": 5256,
      "componentType": 5126,
      "count": 102,
      "max": [
        0.9214746952056885,
        0.9266232848167419,
        1.0
      ],
      "min": [
        -0.9232715964317322,
        -0.9244720935821533,
        -1.0
      ],
      "type": "VEC3"
    },
    {
      "bufferView": 3,
      "byteOffset": 2688,
      "componentType": 5126,
      "count": 102,
      "max": [
        0.9999995827674866,
        0.9999611973762512,
        0.9394530057907104,
        1.0
      ],
      "min": [
        -0.9302759766578674,
        -0.4151920974254608,
        -0.9401333928108215,
        1.0
      ],
      "type": "VEC4"
    },
    {
      "bufferView": 1,
      "byteOffset": 1344,
      "componentType": 5126,
      "count": 102,
      "max": [
        0.9999020099639893,
        0.5773932933807373
      ],
      "min": [
        9.798885730560869e-05,
        9.798885730560869e-05
      ],
      "type": "VEC2"
    },
    {
      "bufferView": 0,
      "byteOffset": 2112,
      "componentType": 5125,
      "count": 444,
      "type": "SCALAR"
    }
  ],
  "asset": {
    "extras": {
      "author": "Ritsumei (https://sketchfab.com/ritsumei)",
      "license": "CC-BY-4.0 (http://creativecommons.org/licenses/by/4.0/)",
      "source": "https://sketchfab.com/3d-models/stylized-wooden-table-548fc7c6d0dd4b2f90de83494b52ea40",
      "title": "Stylized wooden table"
    },
    "generator": "Sketchfab-12.65.0",
    "version": "2.0"
  },
  "bufferViews": [
    {
      "buffer": 0,
      "byteLength": 3888,
      "name": "floatBufferViews",
      "target": 34963
    },
    {
      "buffer": 0,
      "byteLength": 2160,
      "byteOffset": 3888,
      "byteStride": 8,
      "name": "floatBufferViews",
      "target": 34962
    },
    {
      "buffer": 0,
      "byteLength": 6480,
      "byteOffset": 6048,
      "byteStride": 12,
      "name": "floatBufferViews",
      "target": 34962
    },
    {
      "buffer": 0,
      "byteLength": 4320,
      "byteOffset": 12528,
      "byteStride": 16,
      "name": "floatBufferViews",
      "target": 34962
    }
  ],
  "buffers": [
    {
      "byteLength": 16848,
      "uri": "scene.bin"
    }
  ],
  "images": [
    {
      "uri": "textures/wood-leg_baseColor.png"
    },
    {
      "uri": "textures/wood-leg_metallicRoughness.png"
    },
    {
      "uri": "textures/wood-leg_normal.png"
    },
    {
      "uri": "textures/wood-top_baseColor.png"
    },
    {
      "uri": "textures/wood-top_metallicRoughness.png"
    },
    {
      "uri": "textures/wood-top_normal.png"
    }
  ],
  "materials": [
    {
      "doubleSided": true,
      "name": "wood-leg",
      "normalTexture": {
        "index": 2
      },
      "occlusionTexture": {
        "index": 1
      },
      "pbrMetallicRoughness": {
        "baseColorTexture": {
          "index": 0
        },
        "metallicFactor": 0.0,
        "metallicRoughnessTexture": {
          "index": 1
        },
        "roughnessFactor": 0.8225334257519654
      }
    },
    {
      "doubleSided": true,
      "name": "wood-top",
      "normalTexture": {
        "index": 5
      },
      "occlusionTexture": {
        "index": 4
      },
      "pbrMetallicRoughness": {
        "baseColorTexture": {
          "index": 3
        },
        "metallicFactor": 0.0,
        "metallicRoughnessTexture": {
          "index": 4
        },
        "roughnessFactor": 0.8225334257519654
      }
    }
  ],
  "meshes": [
    {
      "name": "table-leg_wood-leg_0",
      "primitives": [
        {
          "attributes": {
            "NORMAL": 1,
            "POSITION": 0,
            "TANGENT": 2,
            "TEXCOORD_0": 3
          },
          "indices": 4,
          "material": 0,
          "mode": 4
        }
      ]
    },
    {
      "name": "table-top_wood-top_0",
      "primitives": [
        {
          "attributes": {
            "NORMAL": 6,
            "POSITION": 5,
            "TANGENT": 7,
            "TEXCOORD_0": 8
          },
          "indices": 9,
          "material": 1,
          "mode": 4
        }
      ]
    }
  ],
  "nodes": [
    {
      "children": [
        1
      ],
      "matrix": [
        1.0,
        0.0,
        0.0,
        0.0,
        0.0,
        2.220446049250313e-16,
        -1.0,
        0.0,
        0.0,
        1.0,
        2.220446049250313e-16,
        0.0,
        0.0,
        0.0,
        0.0,
        1.0
      ],
      "name": "Sketchfab_model"
    },
    {
      "children": [
        2
      ],
      "matrix": [
        1.0,
        0.0,
        0.0,
        0.0,
        0.0,
        0.0,
        1.0,
        0.0,
        0.0,
        -1.0,
        0.0,
        0.0,
        0.0,
        0.0,
        0.0,
        1.0
      ],
      "name": "8a7430429c4c422bb5afb0d1a8d28a6f.fbx"
    },
    {
      "children": [
        3,
        5
      ],
      "name": "RootNode"
    },
    {
      "children": [
        4
      ],
      "matrix": [
        100.0,
        0.0,
        0.0,
        0.0,
        0.0,
        -1.629206793918314e-05,
        -99.99999999999868,
        0.0,
        0.0,
        99.99999999999868,
        -1.629206793918314e-05,
        0.0,
        272.95166015625,
        -19.39057159423828,
        -145.38511657714844,
        1.0
      ],
      "name": "table-leg"
    },
    {
      "mesh": 0,
      "name": "table-leg_wood-leg_0"
    },
    {
      "children": [
        6
      ],
      "matrix": [
        100.0,
        0.0,
        0.0,
        0.0,
        0.0,
        -1.629206793918314e-05,
        -99.99999999999868,
        0.0,
        0.0,
        99.99999999999868,
        -1.629206793918314e-05,
        0.0,
        0.0,
        0.0,
        0.0,
        1.0
      ],
      "name": "table-top"
    },
    {
      "mesh": 1,
      "name": "table-top_wood-top_0"
    }
  ],
  "samplers": [
    {
      "magFilter": 9729,
      "minFilter": 9987,
      "wrapS": 10497,
      "wrapT": 10497
    }
  ],
  "scene": 0,
  "scenes": [
    {
      "name": "Sketchfab_Scene",
      "nodes": [
        0
      ]
    }
  ],
  "textures": [
    {
      "sampler": 0,
      "source": 0
    },
    {
      "sampler": 0,
      "source": 1
    },
    {
      "sampler": 0,
      "source": 2
    },
    {
      "sampler": 0,
      "source": 3
    },
    {
      "sampler": 0,
      "source": 4
    },
    {
      "sampler": 0,
      "source": 5
    }
  ]
}
